<svg xmlns="http://www.w3.org/2000/svg" viewBox="0 0 48 48"><defs><style>.cls-1{fill:none;}.cls-1,.cls-2,.cls-3{stroke:#0067cc;stroke-linejoin:round;stroke-width:2px;}.cls-1,.cls-2{stroke-linecap:round;}.cls-2,.cls-3{fill:#91c2eb;}</style></defs><title>Flex Delivery copy 2</title><g id="Layer_2" data-name="Layer 2"><rect class="cls-1" x="6" y="7" width="28" height="32"/><rect class="cls-2" x="14" y="25" width="6" height="14"/><rect class="cls-2" x="20" y="25" width="6" height="14"/><line class="cls-2" x1="5" y1="7" x2="35" y2="7"/><polygon class="cls-1" points="13 18.89 13 11 28 11 28.02 18.89 13 18.89"/><line class="cls-1" x1="22" y1="15" x2="28" y2="15"/><line class="cls-1" x1="13" y1="15" x2="18" y2="15"/><ellipse class="cls-2" cx="20.21" cy="14.95" rx="1.44" ry="1.43"/><path class="cls-3" d="M38.74,40.11a2.14,2.14,0,0,1,1-1l4-1.9a.91.91,0,0,0-.21-1.43L30.94,30.73a.53.53,0,0,0-.72.71L35.29,44a.91.91,0,0,0,1.44.2Z"/></g></svg>